<?xml version="1.0" standalone="no"?>
<!DOCTYPE svg PUBLIC "-//W3C//DTD SVG 20010904//EN"
 "http://www.w3.org/TR/2001/REC-SVG-20010904/DTD/svg10.dtd">
<svg version="1.0" xmlns="http://www.w3.org/2000/svg"
 width="137.000000pt" height="137.000000pt" viewBox="0 0 137.000000 137.000000"
 preserveAspectRatio="xMidYMid meet">
<metadata>
Created by potrace 1.11, written by Peter Selinger 2001-2013
</metadata>
<g transform="translate(0.000000,137.000000) scale(0.100000,-0.100000)"
fill="#000000" stroke="none">
<path d="M46 1354 c-24 -23 -30 -61 -15 -84 8 -11 149 -200 314 -420 195 -260
308 -402 323 -406 12 -3 32 -3 45 0 13 4 87 92 191 226 93 121 171 218 173
216 3 -2 4 -190 4 -416 0 -408 2 -442 33 -462 6 -4 52 -8 103 -8 147 0 133
-74 133 685 0 761 15 685 -140 685 -54 0 -105 -3 -114 -6 -9 -3 -95 -115 -192
-247 -98 -133 -187 -252 -198 -264 l-21 -23 -185 247 c-102 136 -195 257 -208
270 -21 21 -32 23 -127 23 -81 0 -107 -3 -119 -16z"/>
<path d="M91 469 c-69 -9 -71 -16 -71 -234 0 -241 -3 -235 134 -235 140 0 136
-7 136 235 0 182 -1 196 -20 215 -11 11 -30 20 -42 21 -13 0 -39 1 -58 2 -20
1 -55 -1 -79 -4z"/>
</g>
</svg>
