<?xml version="1.0" encoding="UTF-8" standalone="no"?>
<svg
   xmlns:dc="http://purl.org/dc/elements/1.1/"
   xmlns:cc="http://creativecommons.org/ns#"
   xmlns:rdf="http://www.w3.org/1999/02/22-rdf-syntax-ns#"
   xmlns:svg="http://www.w3.org/2000/svg"
   xmlns="http://www.w3.org/2000/svg"
   xmlns:sodipodi="http://sodipodi.sourceforge.net/DTD/sodipodi-0.dtd"
   xmlns:inkscape="http://www.inkscape.org/namespaces/inkscape"
   width="150"
   height="125"
   version="1.1"
   id="svg15"
   sodipodi:docname="mongo-simple.svg"
   inkscape:version="0.92.4 (5da689c313, 2019-01-14)">
  <metadata
     id="metadata19">
    <rdf:RDF>
      <cc:Work
         rdf:about="">
        <dc:format>image/svg+xml</dc:format>
        <dc:type
           rdf:resource="http://purl.org/dc/dcmitype/StillImage" />
        <dc:title></dc:title>
      </cc:Work>
    </rdf:RDF>
  </metadata>
  <sodipodi:namedview
     pagecolor="#ffffff"
     bordercolor="#666666"
     borderopacity="1"
     objecttolerance="10"
     gridtolerance="10"
     guidetolerance="10"
     inkscape:pageopacity="0"
     inkscape:pageshadow="2"
     inkscape:window-width="1920"
     inkscape:window-height="1027"
     id="namedview17"
     showgrid="false"
     inkscape:zoom="1.6511628"
     inkscape:cx="86"
     inkscape:cy="86.725352"
     inkscape:window-x="-8"
     inkscape:window-y="22"
     inkscape:window-maximized="1"
     inkscape:current-layer="svg15" />
  <defs
     id="SvgjsDefs1351" />
  <g
     id="SvgjsG1352"
     featurekey="root"
     style="fill:#dbd9d9" />
  <g
     id="SvgjsG1353"
     featurekey="container1"
     style="fill:#ff0000">
    <rect
       x="0"
       y="0"
       width="5"
       height="125"
       id="rect4"
       style="fill:#ff0000" />
    <rect
       x="147"
       y="0"
       width="5"
       height="125"
       id="rect6"
       style="fill:#ff0000" />
  </g>
  <g
     id="SvgjsG1354"
     featurekey="text4"
     transform="matrix(7.094594,0,0,7.094594,13.530401,-25.47296)"
     style="fill:#ff0000">
    <path
       d="m 15.36,5 q 0.28,0 0.49,0.21 0.21,0.21 0.21,0.49 v 13.4 q 0,0.28 -0.21,0.49 -0.21,0.21 -0.49,0.21 h -1.52 q -0.3,0 -0.5,-0.21 -0.2,-0.21 -0.2,-0.49 v -9.04 l -3.7,4.76 q -0.22,0.26 -0.56,0.26 v 0 Q 8.72,15.08 8.56,15.01 8.4,14.94 8.32,14.8 L 1.76,6.12 Q 1.64,5.98 1.62,5.77 1.6,5.56 1.7,5.39 1.8,5.22 1.96,5.11 2.12,5 2.32,5 h 1.76 q 0.34,0 0.56,0.28 l 4.24,5.6 4.14,-5.6 Q 13.24,5 13.6,5 Z M 3.84,14.7 q 0.28,0 0.49,0.2 0.21,0.2 0.21,0.5 v 3.7 q 0,0.28 -0.21,0.49 Q 4.12,19.8 3.84,19.8 H 2.32 Q 2.04,19.8 1.83,19.59 1.62,19.38 1.62,19.1 v -3.7 q 0,-0.3 0.21,-0.5 0.21,-0.2 0.49,-0.2 z"
       id="path9"
       inkscape:connector-curvature="0"
       style="fill:#ff0000" />
  </g>
  <g
     id="SvgjsG1355"
     featurekey="text1"
     transform="translate(172,63)"
     style="fill:#21479e">
    <path
       d=""
       id="path12"
       inkscape:connector-curvature="0" />
  </g>
</svg>
